<svg width="16" height="16" viewBox="0 0 16 16" fill="none" xmlns="http://www.w3.org/2000/svg">
<path d="M1.44131 5.6665C1.33331 6.40184 1.33331 7.3665 1.33331 8.6665C1.33331 11.1805 1.33331 12.4378 2.11465 13.2185C2.89598 13.9992 4.15265 13.9998 6.66665 13.9998H9.33331C11.8473 13.9998 13.1046 13.9998 13.8853 13.2185C14.666 12.4372 14.6666 11.1805 14.6666 8.6665C14.6666 7.3665 14.6666 6.4025 14.5586 5.6665C13.0406 6.65317 12.068 7.2825 11.1666 7.66984V7.99984C11.1681 8.13245 11.1169 8.26022 11.0242 8.35505C10.9315 8.44988 10.8049 8.504 10.6723 8.5055C10.5397 8.50701 10.4119 8.45577 10.3171 8.36306C10.2223 8.27036 10.1681 8.14378 10.1666 8.01117C8.74646 8.38555 7.2535 8.38555 5.83331 8.01117C5.83181 8.14378 5.77769 8.27036 5.68286 8.36306C5.58803 8.45577 5.46025 8.50701 5.32765 8.5055C5.19504 8.504 5.06846 8.44988 4.97575 8.35505C4.88305 8.26022 4.83181 8.13245 4.83331 7.99984V7.66984C3.93198 7.28184 2.95998 6.65317 1.44131 5.6665Z" fill="#515151"/>
<path fill-rule="evenodd" clip-rule="evenodd" d="M7.05403 1.49971H7.0407C6.9647 1.49971 6.90603 1.49971 6.85003 1.50305C6.50365 1.5241 6.17036 1.64303 5.8889 1.84602C5.60744 2.049 5.38937 2.3277 5.26003 2.64971C5.23164 2.72532 5.20496 2.80156 5.18003 2.87838L5.17737 2.88638C5.10878 3.06807 4.99276 3.22807 4.84137 3.34971C4.68981 3.3546 4.5447 3.36127 4.40603 3.36971C3.31003 3.43371 2.6147 3.61371 2.1147 4.11438C1.95204 4.27656 1.81853 4.46554 1.72003 4.67305C1.7587 4.68638 1.79581 4.70438 1.83137 4.72705C3.23137 5.63705 4.11137 6.20704 4.8427 6.57171C4.86657 6.44991 4.93488 6.34134 5.03436 6.26711C5.13384 6.19289 5.25737 6.15832 5.38093 6.17013C5.50449 6.18193 5.61923 6.23927 5.70286 6.33099C5.78648 6.42271 5.833 6.54226 5.83337 6.66638V6.97171C7.2467 7.39838 8.75337 7.39838 10.1667 6.97171V6.66638C10.1662 6.54166 10.2123 6.42125 10.296 6.32879C10.3798 6.23633 10.495 6.1785 10.6192 6.16665C10.7433 6.15479 10.8674 6.18976 10.9671 6.26471C11.0668 6.33965 11.1349 6.44915 11.158 6.57171C11.8887 6.20638 12.7687 5.63705 14.1687 4.72705C14.2036 4.70479 14.241 4.68666 14.28 4.67305C14.1815 4.46554 14.048 4.27656 13.8854 4.11438C13.3854 3.61438 12.69 3.43438 11.594 3.36905C11.4625 3.36193 11.3251 3.35571 11.182 3.35038L11.1554 3.32771C11.0006 3.19395 10.8805 3.02468 10.8054 2.83438L10.8034 2.82838C10.7794 2.75705 10.7614 2.70105 10.74 2.64905C10.6106 2.32715 10.3925 2.0486 10.111 1.84574C9.82957 1.64288 9.49634 1.52405 9.15003 1.50305C9.08674 1.50013 9.02338 1.49902 8.96003 1.49971H7.05403ZM9.8787 3.21038L9.87537 3.20305L9.87203 3.19505L9.86937 3.18705L9.8667 3.18038L9.86537 3.17705L9.8627 3.16905L9.86003 3.16105L9.8587 3.15705L9.8567 3.15171L9.85537 3.14705L9.85403 3.14305C9.84122 3.1025 9.82744 3.06227 9.8127 3.02238C9.75388 2.8759 9.65468 2.74913 9.52662 2.65684C9.39857 2.56454 9.24693 2.51052 9.08937 2.50105C9.04161 2.49932 8.99381 2.49887 8.94603 2.49971H7.05403C6.9587 2.49971 6.93203 2.49971 6.9107 2.50105C6.75325 2.51064 6.60176 2.56472 6.47383 2.65701C6.3459 2.74929 6.2468 2.87599 6.18803 3.02238L6.18603 3.02705L6.1807 3.04105C6.16256 3.09181 6.14544 3.14293 6.12937 3.19438L6.12803 3.19838L6.12603 3.20305L6.1247 3.20838L6.12337 3.21238L6.1207 3.22038L6.11803 3.22838L6.1167 3.23171L6.11403 3.23838L6.11137 3.24638L6.10803 3.25438L6.10537 3.26105L6.1047 3.26171L6.07537 3.33371L6.6667 3.33305H9.9307C9.91201 3.29275 9.89466 3.25183 9.8787 3.21038Z" fill="#515151"/>
</svg>
