<svg width="190" height="50" viewBox="0 0 190 50" fill="none" xmlns="http://www.w3.org/2000/svg">
<g clip-path="url(#clip0_152_13)">
<mask id="mask0_152_13" style="mask-type:luminance" maskUnits="userSpaceOnUse" x="0" y="0" width="190" height="50">
<path d="M0 0H190V50H0V0Z" fill="white"/>
</mask>
<g mask="url(#mask0_152_13)">
<path d="M131.008 0H181.082C186 0 190.009 4.00288 190.009 8.93269V30.7452C190.009 35.6654 186.009 39.6779 181.082 39.6779H162.268V34.801H181.082C182.154 34.801 183.182 34.3748 183.94 33.6159C184.699 32.8571 185.126 31.8277 185.127 30.7538V8.93269C185.126 7.8588 184.699 6.82941 183.94 6.0706C183.182 5.31178 182.154 4.88558 181.082 4.88558H131.008V0Z" fill="black"/>
<path d="M156.629 15.2789V39.276H151.854V15.3145H131.4V10.5366H151.881C154.491 10.5366 156.62 12.6674 156.62 15.2789H156.629ZM142.277 20.503H131.4V25.2809H141.44V39.276H146.215V24.4337C146.214 23.3882 145.798 22.3858 145.06 21.6469C144.322 20.908 143.321 20.4931 142.277 20.4934V20.503Z" fill="url(#paint0_linear_152_13)"/>
<path d="M6.24505 34.7308L28.7831 4.94615V0H0V4.94712H22.4853L0 34.7308V39.6779H29.0057V34.7308H6.24505ZM43.8823 10.8663C36.8811 10.8663 30.1467 15.4308 30.1467 25.5394C30.1467 35.6481 36.8811 40.2125 43.8833 40.2125C50.8855 40.2125 57.6823 35.6481 57.6823 25.5394C57.6823 15.4308 50.9469 10.8663 43.8823 10.8663ZM43.8823 35.5952C39.3223 35.5952 35.3573 32.4923 35.3573 25.5394C35.3573 18.5865 39.3223 15.4846 43.8833 15.4846C48.4442 15.4846 52.4717 18.5865 52.4717 25.5394C52.4717 32.4923 48.4519 35.5952 43.8823 35.5952ZM72.7201 10.8663C64.9512 10.8663 60.9871 13.6933 60.9871 19.3442V20.4856H66.2524V19.8346C66.2524 16.251 68.5324 15.0558 72.605 15.0558C76.6756 15.0558 78.9028 16.251 78.9028 20.7615V21.5279C78.9028 22.3933 78.0391 22.8837 75.4281 23.2125L68.4173 24.024C63.366 24.6212 59.4019 26.85 59.4019 32.2875C59.4019 37.725 63.5886 40.2212 68.8539 40.2212C75.8014 40.2212 78.4662 36.201 79.0093 35.1135H79.2319V39.6769H84.3897V20.7077C84.3897 13.8615 80.6934 10.8663 72.7115 10.8663H72.7201ZM78.9114 29.1856C78.9114 32.2337 76.1938 35.924 70.2252 35.924C66.8052 35.924 64.9071 34.6769 64.9071 32.0106C64.9071 29.7827 66.2083 28.5346 69.7444 28.0971L75.0625 27.3933C77.8338 27.0635 78.5362 26.6808 78.92 26.0923V29.1856H78.9114ZM104.007 10.8663C99.8191 10.8663 96.2379 12.7654 94.5548 15.8673V11.4106H89.0668V50H94.5548V35.2212C96.2379 38.3135 99.8191 40.2212 104.007 40.2212C110.305 40.2212 116.603 35.7644 116.603 25.5481C116.603 15.3327 110.305 10.875 104.007 10.875V10.8663ZM102.866 35.5952C98.5188 35.5952 94.287 32.4394 94.287 25.5394C94.287 18.6394 98.5275 15.4846 102.866 15.4846C107.204 15.4846 111.392 18.6394 111.392 25.5394C111.392 32.4394 107.267 35.5952 102.866 35.5952ZM122.412 0C120.674 0 119.151 1.47115 119.151 3.2625C119.151 5.05481 120.674 6.525 122.412 6.525C124.149 6.525 125.672 5.10769 125.672 3.2625C125.672 1.41731 124.149 0 122.412 0ZM119.694 11.4106V39.6683H125.182V11.4106H119.694Z" fill="black"/>
</g>
</g>
<defs>
<linearGradient id="paint0_linear_152_13" x1="135.552" y1="33.3751" x2="156.126" y2="12.8138" gradientUnits="userSpaceOnUse">
<stop stop-color="#F1703C"/>
<stop offset="0.29" stop-color="#F06D3F"/>
<stop offset="0.53" stop-color="#EF6449"/>
<stop offset="0.75" stop-color="#EC545A"/>
<stop offset="0.95" stop-color="#E93F72"/>
<stop offset="1" stop-color="#E93A79"/>
</linearGradient>
<clipPath id="clip0_152_13">
<rect width="190" height="50" fill="white"/>
</clipPath>
</defs>
</svg>
